{"glyphs":{"0":{"ha":1607,"x_min":279,"x_max":1249,"o":"m 1154 458 q 1200 496 1153 493 q 1247 463 1246 497 q 1203 424 1249 425 q 1154 458 1156 421 m 1114 546 q 1150 586 1107 576 q 1199 565 1192 596 q 1164 525 1206 535 q 1114 546 1121 515 m 1124 367 q 1174 393 1129 400 q 1213 353 1218 386 q 1163 326 1207 319 q 1124 367 1118 333 m 1104 410 q 1057 374 1088 375 q 1011 399 1029 372 q 993 450 994 421 q 1007 506 992 479 q 1050 533 1022 532 q 1096 507 1078 535 l 1097 507 q 1132 460 1131 507 q 1104 410 1133 414 m 439 613 q 452 647 435 632 q 489 661 469 661 q 529 635 522 661 q 517 601 535 615 q 479 586 500 586 q 439 613 446 586 m 400 676 q 379 700 379 681 q 408 736 379 722 q 443 740 426 744 q 463 717 463 735 q 442 683 463 694 q 400 676 422 671 m 428 517 q 471 551 426 550 q 517 521 515 554 q 474 486 518 488 q 428 517 429 483 m 400 554 q 350 508 388 508 q 299 539 319 508 q 279 597 279 565 q 321 664 279 653 q 372 647 349 671 l 374 649 q 417 608 404 656 q 400 554 428 564 z "},"1":{"ha":1257,"x_min":15,"x_max":1176,"o":"m 72 428 q 32 444 49 428 q 15 485 15 461 q 32 525 15 508 q 72 542 49 542 q 113 525 96 542 q 129 485 129 508 q 113 444 129 461 q 72 428 96 428 m 556 483 l 381 424 l 206 483 l 381 542 l 556 483 m 693 428 q 653 444 669 428 q 636 485 636 461 q 653 525 636 508 q 693 542 669 542 q 733 525 717 542 q 750 485 750 508 q 733 444 750 461 q 693 428 717 428 m 1176 483 l 1001 424 l 826 483 l 1001 542 l 1176 483 z "},"2":{"ha":1311,"x_min":68,"x_max":1211,"o":"m 314 414 q 282 419 294 400 q 288 451 274 432 q 386 499 322 475 q 643 543 508 543 q 868 475 754 543 q 1004 428 947 428 q 1147 492 1103 428 q 1165 549 1165 518 q 1133 615 1165 589 q 1061 638 1101 642 q 1014 594 1022 633 q 1051 543 1004 544 q 1074 521 1074 543 q 1051 497 1074 506 q 983 527 1006 497 q 968 603 960 557 q 1057 683 981 676 q 1144 664 1103 688 q 1201 599 1185 640 q 1211 547 1211 574 q 1185 465 1211 504 q 1004 382 1128 382 q 844 436 935 382 q 643 497 742 497 q 403 456 518 497 q 314 414 367 443 m 121 436 q 83 451 99 436 q 68 489 68 467 q 83 526 68 511 q 121 542 99 542 q 158 526 143 542 q 172 489 172 511 q 158 451 172 467 q 121 436 143 436 z "},"3":{"ha":1251,"x_min":11,"x_max":1196,"o":"m 736 594 m 751 572 q 656 514 714 544 q 751 457 714 483 l 736 435 q 626 499 688 467 q 308 408 449 411 q 100 454 204 407 q 17 504 46 479 l 17 504 q 11 514 11 508 q 18 525 11 522 q 308 619 149 621 q 626 529 450 618 q 736 594 714 579 l 751 572 m 308 436 q 594 514 433 438 q 308 592 435 590 q 49 514 167 594 q 308 436 168 435 m 193 483 q 163 514 163 483 q 193 544 163 544 q 225 514 225 544 q 193 483 225 483 m 878 501 l 860 522 q 985 563 910 567 q 1068 536 1014 561 q 1151 511 1122 511 q 1190 517 1169 511 l 1196 489 q 1151 485 1172 485 q 1065 509 1118 485 q 983 535 1011 533 q 878 501 947 536 z "},"4":{"ha":1353,"x_min":104,"x_max":1224,"o":"m 757 635 q 803 616 785 635 q 822 569 822 597 q 804 526 822 544 q 761 506 786 507 q 781 460 781 486 q 761 414 781 433 q 715 394 742 394 q 656 435 672 394 q 597 397 639 397 q 551 416 569 397 q 532 463 532 435 q 551 508 532 489 q 500 572 500 519 q 519 617 500 599 q 564 636 538 636 q 593 629 579 636 l 593 631 q 608 678 590 657 q 651 701 625 699 q 699 687 678 704 q 722 643 719 669 q 721 624 724 633 q 757 635 738 635 m 1157 451 q 1110 471 1129 451 q 1092 518 1092 490 q 1111 564 1092 544 q 1157 583 1131 583 q 1204 565 1185 583 q 1224 518 1224 546 q 1204 471 1224 490 q 1157 451 1185 451 m 169 451 q 123 471 142 451 q 104 518 104 490 q 124 564 104 544 q 169 583 143 583 q 217 565 197 583 q 236 518 236 546 q 217 471 236 490 q 169 451 197 451 z "},"5":{"ha":1243,"x_min":160,"x_max":1089,"o":"m 504 681 q 531 690 515 690 q 626 589 581 690 q 722 692 675 692 q 746 683 736 692 q 750 663 750 678 q 624 375 750 583 q 500 661 500 583 q 504 681 500 675 m 1089 500 l 1008 500 l 1008 581 l 1089 581 l 1089 500 m 160 500 l 160 581 l 240 581 l 240 500 l 160 500 z "},"6":{"ha":1593,"x_min":133,"x_max":1467,"o":"m 911 546 q 869 500 911 503 q 882 468 882 488 q 838 422 882 422 q 794 451 806 422 q 753 424 782 424 q 708 469 708 424 q 722 503 708 489 q 685 547 685 510 q 731 592 685 592 q 751 588 738 592 q 792 638 746 633 q 842 597 836 642 q 840 583 842 590 q 868 593 854 593 q 899 578 886 593 q 911 546 911 564 m 492 529 q 313 479 399 483 q 133 529 228 482 q 313 578 244 578 q 492 529 392 578 m 1467 526 q 1288 476 1372 481 q 1108 526 1201 479 q 1288 575 1217 575 q 1467 526 1367 575 z "},"7":{"ha":1549,"x_min":128,"x_max":1421,"o":"m 997 694 q 1029 540 1029 683 q 997 393 1029 399 q 807 482 963 386 q 774 451 793 451 q 739 486 753 451 q 542 393 578 386 q 511 540 511 399 q 542 694 511 683 q 735 583 576 707 q 774 628 749 628 q 810 588 797 628 q 997 694 964 707 m 181 501 q 143 516 158 501 q 128 553 128 531 q 143 590 128 575 q 181 604 158 604 q 217 589 201 604 q 232 553 232 574 q 217 517 232 532 q 181 501 201 501 m 1368 501 q 1332 517 1347 501 q 1317 553 1317 532 q 1332 589 1317 574 q 1368 604 1347 604 q 1406 590 1390 604 q 1421 553 1421 575 q 1406 516 1421 531 q 1368 501 1390 501 z "},"8":{"ha":1564,"x_min":28,"x_max":1350,"o":"m 222 556 q 286 561 257 561 q 372 510 372 561 q 42 314 349 406 q 28 476 28 406 q 88 676 28 640 q 114 682 101 682 q 194 581 171 682 q 331 679 247 636 l 347 646 q 222 556 271 607 m 608 506 l 600 542 q 724 556 660 556 q 804 546 768 556 q 960 478 853 533 q 1118 417 1057 426 q 1181 411 1151 411 q 1306 458 1268 411 q 1305 512 1325 483 q 1251 540 1285 540 q 1231 538 1242 540 q 1201 497 1218 525 l 1165 503 q 1224 574 1174 564 q 1251 578 1238 578 q 1336 532 1307 578 q 1350 483 1350 510 q 1335 436 1350 456 q 1181 374 1288 374 q 1113 379 1146 374 q 951 442 1051 389 q 794 510 847 496 q 724 518 763 518 q 608 506 690 518 z "},"9":{"ha":1899,"x_min":8,"x_max":1799,"o":"m 1111 526 l 1033 449 l 956 526 l 1033 604 l 1111 526 m 164 526 l 86 449 l 8 526 l 86 604 l 164 526 m 268 497 l 268 539 l 840 539 l 840 497 l 268 497 m 1228 497 l 1228 539 l 1799 539 l 1799 497 l 1228 497 z "}," ":{"ha":1389,"x_min":0,"x_max":0,"o":""},"!":{"ha":1167,"x_min":0,"x_max":1111,"o":"m 556 592 q 489 846 511 740 q 482 960 482 914 q 556 1111 482 1111 q 625 967 625 1111 q 556 592 625 749 m 519 556 q 265 489 371 511 q 151 482 197 482 q 0 556 0 482 q 144 625 0 625 q 519 556 363 625 m 556 519 q 622 265 600 371 q 629 151 629 197 q 556 0 629 0 q 486 144 486 0 q 556 519 486 363 m 592 556 q 846 622 740 600 q 960 629 914 629 q 1111 556 1111 629 q 967 486 1111 486 q 592 556 749 486 m 582 582 q 714 808 622 697 q 908 967 843 967 q 948 949 931 967 q 965 910 965 932 q 814 724 965 853 q 582 582 701 628 m 529 582 q 303 714 414 622 q 144 908 144 843 q 162 948 144 931 q 201 965 179 965 q 388 814 258 965 q 529 582 483 701 m 529 529 q 397 303 489 414 q 203 144 268 144 q 163 162 181 144 q 146 201 146 179 q 297 388 146 258 q 529 529 410 483 m 582 529 q 808 397 697 489 q 967 203 967 268 q 949 163 967 181 q 910 146 932 146 q 724 297 853 146 q 582 529 628 410 z "},"\"":{"ha":1226,"x_min":0,"x_max":1168,"o":"m 1168 635 q 1105 474 1168 540 q 947 400 1042 407 q 1017 235 1017 332 q 949 68 1017 136 q 782 0 881 0 q 611 75 681 0 q 565 146 582 107 q 511 71 544 103 q 351 8 444 8 q 185 76 253 8 q 117 243 117 144 q 189 411 117 342 q 53 492 106 428 q 0 642 0 557 q 100 833 0 764 q 235 875 161 875 q 340 850 289 875 l 340 853 q 339 882 339 868 q 400 1035 339 969 q 549 1110 461 1101 q 721 1059 646 1119 q 806 901 796 999 q 803 829 810 864 q 933 869 861 869 q 1099 801 1031 869 q 1168 635 1168 732 m 561 333 q 706 394 646 333 q 767 539 767 454 q 706 684 767 624 q 561 744 646 744 q 416 684 476 744 q 356 539 356 624 q 416 394 356 454 q 561 333 476 333 z "},"#":{"ha":1128,"x_min":115,"x_max":994,"o":"m 556 597 q 479 672 503 600 q 464 789 460 728 q 493 903 468 850 q 578 968 525 971 q 656 893 629 965 q 671 776 674 838 q 642 663 668 717 q 556 597 608 594 m 475 551 q 356 476 475 476 q 157 551 238 476 q 115 629 115 590 q 157 689 115 668 q 235 706 190 706 q 433 629 351 706 q 475 551 475 590 m 468 456 q 536 375 536 456 q 481 231 536 304 q 326 132 407 132 q 257 211 257 132 q 314 356 257 279 q 468 456 389 456 m 576 378 q 646 460 576 460 q 799 357 724 460 q 853 214 853 282 q 785 133 853 133 q 631 235 704 133 q 576 378 576 310 m 758 475 q 676 490 711 475 q 631 553 631 511 q 697 647 631 603 q 867 699 775 699 q 949 682 914 699 q 994 619 994 661 q 939 532 994 574 q 840 486 894 501 q 758 475 799 475 z "},"$":{"ha":1000,"x_min":81,"x_max":917,"o":"m 507 697 q 415 738 451 697 q 378 835 378 779 q 415 931 378 890 q 507 972 451 972 q 599 931 563 972 q 636 835 636 890 q 599 738 636 779 q 507 697 563 697 m 332 567 q 211 476 301 476 q 165 486 189 476 q 81 614 81 521 q 89 663 81 639 q 211 751 121 751 q 256 743 235 751 q 340 614 340 710 q 332 567 340 592 m 454 265 q 417 169 454 210 q 325 128 381 128 q 233 168 269 128 q 196 265 196 208 q 233 362 196 321 q 325 403 271 403 q 417 363 381 403 q 454 265 454 322 m 618 368 q 671 381 644 381 q 789 297 756 381 q 800 243 800 269 q 722 117 800 153 q 671 106 699 106 q 551 188 586 106 q 540 243 540 214 q 618 368 540 332 m 788 460 q 694 501 732 460 q 657 597 657 542 q 694 694 657 653 q 788 735 732 735 q 879 694 842 735 q 917 597 917 653 q 880 501 917 542 q 788 460 843 460 m 503 425 q 447 451 469 425 q 424 510 424 476 q 447 568 424 543 q 503 593 469 593 q 559 568 536 593 q 582 510 582 543 q 560 450 582 475 q 503 425 538 425 z "},"%":{"ha":792,"x_min":-3,"x_max":756,"o":"m 706 664 q 741 649 726 664 q 756 614 756 635 q 721 565 756 576 l 539 507 l 674 274 l 519 274 l 551 63 q 510 6 558 13 q 458 17 483 1 q 429 57 432 32 l 401 278 l 372 278 l 343 47 q 269 0 338 0 q 235 17 247 0 q 226 57 224 35 l 253 274 l 97 274 l 226 497 l 33 558 q -3 607 -3 569 q 49 657 -3 657 q 64 654 56 657 l 278 586 l 326 664 q 222 735 263 682 q 182 853 182 788 q 239 992 182 935 q 378 1050 296 1050 q 517 992 460 1050 q 575 853 575 935 q 538 738 575 789 q 439 667 500 686 l 488 597 l 690 661 q 706 664 699 664 z "},"&":{"ha":801,"x_min":-1,"x_max":765,"o":"m 714 658 q 751 644 736 658 q 765 607 765 629 q 731 558 765 571 l 538 490 l 538 331 l 610 74 q 611 60 611 68 q 558 -1 611 -1 q 494 35 504 -1 l 422 293 l 350 293 l 278 35 q 213 -1 268 -1 q 161 65 161 -1 q 164 82 161 75 l 240 350 l 240 497 l 33 569 q -1 618 -1 582 q 13 653 -1 639 q 49 668 28 668 q 65 667 57 668 l 276 599 q 324 643 290 622 q 385 667 357 664 q 256 726 308 671 q 204 857 204 781 q 260 992 204 936 q 396 1049 317 1049 q 531 992 475 1049 q 586 857 586 936 q 536 727 586 782 q 411 667 486 672 q 496 592 446 664 l 699 656 q 714 658 707 658 z "},"'":{"ha":1349,"x_min":10,"x_max":1192,"o":"m 1079 667 q 1192 404 1192 539 q 981 104 1192 218 q 603 8 806 8 q 228 100 407 8 q 10 389 10 211 q 17 440 10 411 q 104 646 44 558 q 22 815 22 710 q 83 967 22 904 q 233 1031 144 1031 q 367 981 310 1031 q 439 857 425 932 q 603 874 517 874 q 721 863 663 874 q 794 981 738 935 q 925 1026 851 1026 q 1074 964 1013 1026 q 1135 813 1135 901 q 1079 667 1135 729 m 154 831 q 175 779 154 800 q 226 758 196 758 q 277 779 257 758 q 297 831 297 800 q 276 881 297 860 q 226 901 256 901 q 175 881 196 901 q 154 831 154 861 m 607 210 q 878 293 776 210 q 949 382 931 338 l 886 407 q 829 340 872 374 q 607 276 746 276 q 369 338 464 276 q 300 403 321 369 l 297 408 l 243 369 q 326 288 267 328 q 607 210 440 210 m 925 746 q 976 767 956 746 q 997 818 997 788 q 976 869 997 849 q 925 889 956 889 q 875 868 896 889 q 854 818 854 847 q 874 767 854 788 q 925 746 894 746 z "},"(":{"ha":1010,"x_min":78,"x_max":919,"o":"m 867 781 q 919 644 919 742 q 811 294 919 503 q 651 85 711 101 q 606 78 626 78 q 547 89 585 78 q 490 100 510 100 q 444 91 475 100 q 397 82 414 82 q 313 100 363 82 q 147 338 225 132 q 78 633 78 518 q 133 794 78 749 q 267 840 189 840 q 443 769 322 840 q 544 978 456 879 q 638 1057 596 1035 l 678 985 q 607 924 647 967 q 528 769 539 850 l 547 769 q 696 840 610 840 q 867 781 786 840 z "},")":{"ha":914,"x_min":0,"x_max":871,"o":"m 871 1013 q 690 894 871 935 q 451 864 589 871 q 467 789 467 828 q 419 660 467 721 q 382 563 382 611 q 396 504 382 532 l 722 504 l 689 300 l 624 300 l 596 0 l 450 0 q 386 38 433 38 q 322 0 339 38 l 171 0 l 142 300 l 67 300 l 39 504 l 319 504 q 311 563 311 533 q 363 703 311 636 q 394 789 394 744 q 378 851 394 813 l 385 856 q 0 990 0 886 q 8 1019 0 1004 q 117 1096 50 1096 q 408 872 240 1096 l 411 874 q 604 1057 494 988 q 764 1111 690 1111 q 839 1083 807 1111 q 871 1013 871 1054 z "},"*":{"ha":1317,"x_min":-3,"x_max":1251,"o":"m 1090 594 q 1188 514 1129 576 q 1251 403 1251 444 q 1208 360 1251 360 q 1110 396 1176 360 q 986 149 1108 222 q 1188 56 1188 100 q 1182 42 1188 49 q 1081 4 1153 4 q 782 86 969 4 q 626 78 711 78 q 469 86 540 78 q 172 4 283 4 q 71 42 100 4 q 65 56 65 49 q 268 149 65 100 q 140 394 143 224 q 49 364 83 364 q -3 413 -3 364 q 65 522 -3 457 q 164 594 121 576 q 300 906 206 788 q 235 939 261 910 q 208 1007 208 968 q 239 1080 208 1050 q 313 1110 269 1110 q 385 1081 354 1110 q 415 1007 404 1061 q 626 1061 508 1061 q 838 1008 743 1061 l 838 1013 q 867 1085 838 1056 q 940 1115 897 1115 q 1014 1085 983 1115 q 1044 1013 1044 1056 q 1018 944 1044 974 q 953 911 992 915 q 1090 594 1056 790 m 401 719 q 447 738 428 719 q 465 782 465 756 q 447 827 465 808 q 401 846 428 846 q 357 827 375 846 q 339 782 339 808 q 357 738 339 756 q 401 719 375 719 m 722 597 l 722 671 l 542 671 l 542 597 l 722 597 m 840 719 q 885 738 867 719 q 903 782 903 756 q 885 827 903 808 q 840 846 867 846 q 795 827 814 846 q 776 782 776 808 q 795 738 776 756 q 840 719 814 719 z "},"+":{"ha":1168,"x_min":0,"x_max":1113,"o":"m 557 1111 q 869 1079 708 1111 q 1113 939 1113 1032 q 1033 850 1113 890 l 1033 64 q 1015 19 1033 38 q 969 0 996 0 l 168 0 q 123 19 142 0 q 104 64 104 38 l 104 838 q 0 939 0 883 q 243 1079 0 1032 q 557 1111 404 1111 m 269 663 q 290 610 269 632 q 342 589 311 589 q 394 610 372 589 q 415 663 415 632 q 394 714 415 693 q 342 735 372 735 q 291 713 313 735 q 269 663 269 692 m 575 331 q 740 442 703 338 l 386 442 q 504 344 425 374 q 575 331 539 332 m 792 589 q 843 610 822 589 q 864 663 864 632 q 843 714 864 693 q 792 735 822 735 q 740 714 761 735 q 719 663 719 693 q 740 610 719 632 q 792 589 761 589 z "},",":{"ha":1038,"x_min":0,"x_max":988,"o":"m 646 788 q 557 842 617 811 q 590 1111 557 1088 q 608 1093 600 1110 q 639 954 628 1056 q 769 1075 739 1074 q 774 1051 774 1071 q 743 889 774 1004 q 913 939 864 939 q 928 936 925 939 q 819 797 940 906 q 893 801 861 801 q 988 778 978 801 q 957 756 983 767 q 726 706 893 728 q 646 788 710 733 m 413 807 q 306 706 375 793 q 428 532 306 621 l 383 472 q 249 629 285 546 q 165 499 207 568 q 275 356 175 429 l 232 296 q 118 415 154 353 q 0 82 0 192 q 81 0 0 0 q 333 117 172 0 q 597 353 472 217 q 725 538 721 485 q 630 713 733 615 q 442 811 526 811 q 413 807 426 811 z "},"-":{"ha":950,"x_min":154,"x_max":776,"o":"m 776 551 q 543 429 632 551 q 465 169 465 321 q 388 429 465 321 q 154 551 299 551 q 388 674 299 551 q 465 933 465 782 q 543 674 465 782 q 776 551 632 551 z "},".":{"ha":1069,"x_min":108,"x_max":922,"o":"m 213 365 q 457 243 306 249 q 711 354 603 238 q 799 586 803 453 q 696 813 794 721 q 526 876 624 879 q 363 801 431 874 q 317 681 314 750 q 369 563 319 610 q 450 532 401 532 q 524 557 493 532 q 554 624 556 582 q 531 676 554 654 q 513 719 513 703 q 529 761 513 744 q 571 778 546 778 q 611 761 594 778 q 640 714 628 736 q 672 626 671 660 q 619 489 675 549 q 450 415 550 415 q 290 478 357 415 q 200 676 204 558 q 276 881 196 794 q 522 993 378 989 q 776 897 668 997 q 915 590 908 774 q 797 274 922 406 q 453 126 651 119 q 122 293 249 135 q 108 329 108 317 q 126 370 108 353 q 167 388 143 388 q 213 365 194 388 z "},"/":{"ha":883,"x_min":0,"x_max":842,"o":"m 356 1092 l 429 1110 l 467 958 l 393 940 l 356 1092 m 807 933 l 842 867 l 704 793 l 668 861 l 807 933 m 622 1111 l 689 1075 l 615 938 l 549 974 l 622 1111 m 478 685 q 645 556 582 647 q 708 354 708 465 q 605 103 708 207 q 354 0 501 0 q 103 103 206 0 q 0 354 0 206 q 103 605 0 501 q 354 708 207 708 q 388 706 369 708 q 514 864 440 831 l 553 782 q 478 685 511 756 m 601 279 q 604 293 604 286 q 558 339 604 339 q 515 308 539 339 q 414 207 490 236 q 385 164 385 196 q 398 133 385 146 q 429 119 411 119 q 446 122 439 119 q 568 215 522 151 q 601 279 583 236 z "},":":{"ha":1275,"x_min":24,"x_max":1163,"o":"m 917 926 q 1129 1071 1103 1071 q 1133 1069 1132 1071 q 1136 1068 1135 1068 l 1153 1003 q 1154 999 1163 1003 l 1153 1003 l 1153 1003 q 965 871 1133 1003 q 1000 669 1000 771 q 735 219 1000 388 q 426 79 572 117 q 207 49 349 60 q 24 11 89 40 q 299 665 115 456 q 779 950 549 950 q 903 926 835 950 q 232 281 599 690 l 299 232 q 965 871 663 638 q 949 911 960 883 q 917 926 939 918 z "},";":{"ha":1275,"x_min":43,"x_max":1183,"o":"m 290 938 q 258 922 268 931 q 242 883 246 896 q 908 243 544 649 l 975 293 q 304 938 608 701 q 428 961 371 961 q 908 678 660 961 q 1183 22 1092 468 q 999 61 1114 53 q 781 90 851 72 q 471 232 636 128 q 207 681 207 399 q 242 883 207 783 q 150 954 179 932 q 54 1015 69 1013 l 53 1010 q 53 1015 43 1014 l 54 1015 l 71 1081 q 74 1082 72 1081 q 78 1083 75 1083 q 290 938 103 1083 z "},"<":{"ha":910,"x_min":0,"x_max":867,"o":"m 428 882 q 278 869 372 882 q 63 1044 49 1015 q 75 1047 67 1047 q 264 976 128 1047 q 299 1111 267 1096 q 329 1097 311 1110 q 443 989 374 1068 q 607 1107 556 1101 q 629 1058 629 1103 q 615 972 629 1025 q 810 1043 751 1043 q 821 1042 818 1043 q 824 1038 824 1040 q 594 872 824 1003 q 428 882 550 881 m 847 681 q 689 801 792 767 q 443 831 601 831 q 11 672 74 831 q 0 599 0 644 q 56 350 0 489 q 207 106 115 199 q 436 0 314 -4 q 746 225 610 7 q 867 592 867 418 q 847 681 867 650 m 178 539 q 133 635 133 600 q 178 675 133 672 q 222 635 222 672 q 178 539 222 600 m 314 296 q 253 392 253 354 q 289 431 253 421 q 342 386 342 436 q 314 296 342 353 m 440 544 q 396 640 396 606 q 440 681 396 678 q 485 640 485 678 q 440 544 485 606 m 565 292 q 533 385 533 350 q 583 426 533 431 q 622 388 622 419 q 565 292 622 351 m 690 539 q 646 635 646 599 q 690 675 646 672 q 735 635 735 672 q 690 539 735 599 z "},"=":{"ha":926,"x_min":68,"x_max":782,"o":"m 758 194 q 621 51 713 101 q 426 4 535 4 q 210 61 299 4 q 78 238 114 122 q 68 324 68 268 q 440 1115 68 665 q 782 336 782 667 q 758 194 782 243 m 247 443 q 290 461 272 443 q 308 504 308 479 q 290 547 308 529 q 247 565 272 565 q 204 547 222 565 q 186 504 186 529 q 204 461 186 479 q 247 443 222 443 m 421 256 q 531 357 522 263 l 310 357 q 421 256 319 261 m 593 443 q 636 461 618 443 q 654 504 654 479 q 636 548 654 531 q 593 565 618 565 q 551 547 568 565 q 533 504 533 529 q 551 461 533 479 q 593 443 568 443 z "},">":{"ha":1069,"x_min":142,"x_max":954,"o":"m 850 369 q 896 392 868 392 q 937 374 919 392 q 954 333 954 357 q 942 297 954 321 q 610 131 814 139 q 267 278 411 124 q 147 594 142 413 q 288 903 154 778 q 540 997 394 1003 q 786 886 686 992 q 864 681 868 799 q 774 482 861 563 q 614 419 707 419 q 443 493 513 419 q 392 632 389 551 q 453 765 393 681 q 492 782 469 782 q 534 765 517 782 q 551 724 551 749 q 531 683 551 707 q 508 628 510 658 q 529 572 507 596 q 614 536 563 536 q 693 568 658 536 q 746 685 744 615 q 701 806 749 756 q 536 881 635 876 q 367 817 439 883 q 264 590 269 725 q 351 358 260 458 q 606 247 460 242 q 850 369 757 253 z "},"?":{"ha":929,"x_min":0,"x_max":885,"o":"m 885 446 q 755 758 885 629 q 442 888 625 888 q 130 758 260 888 q 0 446 0 629 q 138 125 0 257 l 89 68 l 169 0 l 222 63 q 442 3 325 3 q 690 79 578 3 l 739 22 l 818 92 l 769 149 q 885 446 885 275 m 438 369 l 132 535 l 182 628 l 439 489 l 722 636 l 771 543 l 438 369 m 475 1072 q 479 1083 479 1078 q 429 1111 479 1111 q 379 1083 379 1111 q 383 1072 379 1078 q 117 914 108 1047 l 736 914 q 475 1072 753 1049 z "},"@":{"ha":1349,"x_min":14,"x_max":1299,"o":"m 1206 761 q 1272 734 1244 761 q 1299 668 1299 707 l 1299 444 q 1272 378 1299 406 q 1206 351 1244 351 q 1179 356 1193 351 q 1147 351 1163 351 l 961 351 l 961 0 l 357 0 l 357 272 l 201 272 l 201 174 q 174 108 201 135 q 107 81 146 81 q 41 108 68 81 q 14 174 14 135 l 14 396 q 41 463 14 435 q 107 490 68 490 q 133 486 119 490 q 165 490 150 490 l 357 490 l 357 810 q 445 1024 357 936 q 660 1111 533 1111 q 874 1024 786 1111 q 961 810 961 936 l 961 572 l 1111 572 l 1111 668 q 1139 734 1111 707 q 1206 761 1167 761 m 485 701 q 527 719 510 701 q 544 761 544 736 q 527 803 544 786 q 485 821 510 821 q 442 803 460 821 q 425 761 425 786 q 442 719 425 736 q 485 701 460 701 m 757 543 l 757 615 l 589 615 l 589 543 l 757 543 m 810 785 q 852 802 835 785 q 869 844 869 819 q 852 887 869 869 q 810 904 835 904 q 767 887 785 904 q 750 844 750 869 q 767 802 750 819 q 810 785 785 785 z "},"A":{"ha":1335,"x_min":33,"x_max":1322,"o":"m 1146 418 q 1219 292 1167 390 q 1322 142 1268 199 q 1071 296 1190 250 q 978 319 1017 317 q 893 315 946 322 q 725 149 831 210 q 496 89 619 89 q 169 224 304 89 q 33 550 33 358 q 168 878 33 743 q 496 1013 303 1013 q 824 878 689 1013 q 958 550 958 743 q 957 521 958 544 q 1146 418 1088 493 m 153 690 q 176 636 153 658 q 231 614 199 614 q 285 636 263 614 q 308 690 308 658 q 286 746 308 724 q 231 768 264 768 q 175 746 197 768 q 153 690 153 724 m 457 340 q 631 463 600 349 l 279 463 q 457 340 300 350 m 703 575 q 758 597 736 575 q 781 653 781 619 q 758 708 781 686 q 703 731 736 731 q 649 708 671 731 q 626 653 626 685 q 649 598 626 621 q 703 575 671 575 z "},"B":{"ha":1099,"x_min":0,"x_max":1101,"o":"m 400 310 q 464 338 438 310 q 490 407 490 367 q 464 474 490 446 q 400 503 438 503 q 338 474 364 503 q 311 407 311 446 q 338 338 311 367 q 400 310 364 310 m 1015 1092 q 963 1111 992 1111 q 599 725 822 1111 q 385 792 501 792 q 113 676 225 792 q 0 396 0 560 q 113 116 0 232 q 385 0 225 0 q 656 116 543 0 q 769 396 769 232 q 697 625 769 522 q 956 858 863 751 q 1015 1092 1101 1025 m 344 154 q 251 224 275 179 q 235 308 238 250 q 217 394 232 367 q 181 507 181 461 q 247 626 181 572 q 329 656 282 656 q 470 594 400 656 q 568 435 540 532 q 581 354 581 394 q 529 204 581 265 q 404 143 478 143 q 344 154 374 143 m 903 1011 q 916 1044 903 1031 q 947 1058 929 1058 q 978 1044 965 1058 q 992 1011 992 1031 q 978 977 992 992 q 947 963 965 963 q 916 977 929 963 q 903 1011 903 992 z "},"C":{"ha":1049,"x_min":3,"x_max":981,"o":"m 939 382 l 703 581 q 649 599 682 599 q 568 568 606 599 l 525 533 l 413 671 q 421 707 421 688 q 406 750 421 732 l 149 1061 q 94 1086 129 1086 q 36 1064 63 1086 q 3 996 3 1036 q 18 951 3 971 l 275 640 q 350 618 303 607 l 463 482 l 418 446 q 372 356 372 408 q 382 318 372 335 l 536 53 q 638 -7 571 -7 q 717 22 681 -7 l 936 201 q 981 293 981 239 q 939 382 981 346 m 94 956 q 60 990 60 956 q 94 1026 60 1026 q 129 990 129 1026 q 94 956 129 956 m 619 94 q 586 114 599 94 l 443 339 q 451 381 429 361 q 490 378 475 400 l 644 163 q 653 133 653 150 q 619 94 653 94 m 731 190 q 696 207 710 190 l 533 415 q 540 456 517 436 q 581 454 563 475 l 754 256 q 765 226 765 243 q 731 190 765 190 m 844 283 q 810 300 824 283 l 629 492 q 633 531 610 511 q 676 531 656 550 l 868 349 q 882 318 882 335 q 844 283 882 283 z "},"D":{"ha":1371,"x_min":-19,"x_max":1306,"o":"m 1225 625 q 1306 411 1306 526 q 1115 101 1306 219 q 747 0 951 0 q 454 63 589 0 q 626 143 535 90 l 579 229 q 297 128 406 133 q 29 350 63 169 q 26 389 25 371 q -19 493 -19 433 q 46 571 -19 571 q 139 513 99 571 q 213 526 172 522 q 331 685 247 614 l 324 685 q 367 901 336 757 q 493 1100 414 1100 q 685 821 578 1100 q 747 824 718 824 q 858 815 804 824 q 1086 1111 996 1111 q 1199 900 1161 1111 q 1225 625 1219 782 m 421 499 q 472 519 451 499 q 493 569 493 539 q 472 621 493 600 q 421 642 451 642 q 369 621 390 642 q 347 569 347 600 q 369 519 347 539 q 421 499 390 499 m 868 447 q 920 468 899 447 q 942 519 942 489 q 920 570 942 550 q 868 590 899 590 q 817 570 838 590 q 796 519 796 550 q 817 468 796 489 q 868 447 838 447 z "},"E":{"ha":1079,"x_min":-1,"x_max":1014,"o":"m 683 988 q 757 750 757 881 q 597 419 757 547 l 538 494 l 461 433 l 514 368 q 429 339 472 349 q 443 283 428 304 q 554 244 471 244 l 553 171 q 368 269 407 172 q 356 329 357 297 q 336 329 332 329 q -1 497 126 329 q 153 149 6 292 q 506 6 300 6 q 865 154 717 6 q 1014 513 1014 303 q 922 803 1014 674 q 683 988 831 933 m 738 308 q 691 327 710 308 q 672 372 672 346 q 691 419 672 400 q 738 438 710 438 q 783 419 764 438 q 801 372 801 400 q 783 327 801 346 q 738 308 764 308 z "},"F":{"ha":1361,"x_min":-3,"x_max":1289,"o":"m 1094 565 q 1228 602 1176 565 q 1283 700 1281 639 q 1171 871 1289 790 q 988 965 1078 933 q 639 1014 842 1014 q 99 856 276 1014 q 1 701 -3 767 q 52 602 6 639 q 179 565 99 565 q 333 694 333 565 q 328 768 333 707 q 440 803 365 786 l 440 614 q 293 504 346 590 l 199 350 q 135 146 135 244 q 257 6 135 6 l 1021 6 q 1143 146 1143 6 q 1079 350 1143 244 l 985 504 q 835 615 931 593 l 835 796 q 942 754 893 779 q 938 701 938 724 q 973 602 932 639 q 1094 565 1014 565 m 553 821 q 639 825 599 825 q 721 819 678 825 l 721 619 l 553 619 l 553 821 m 408 335 q 367 352 383 335 q 350 394 350 369 q 367 438 350 419 q 408 456 383 456 q 449 438 432 456 q 465 394 465 419 q 449 352 465 369 q 408 335 432 335 m 625 168 q 528 210 567 168 q 488 282 497 242 l 557 300 q 625 242 571 242 q 707 301 682 242 l 707 301 l 772 274 q 738 219 761 246 q 625 168 690 168 m 860 456 q 901 438 883 456 q 918 394 918 419 q 901 352 918 369 q 860 335 883 335 q 819 352 836 335 q 803 394 803 369 q 819 438 803 419 q 860 456 836 456 z "},"G":{"ha":1164,"x_min":6,"x_max":1104,"o":"m 6 278 l 6 244 q 28 174 6 203 q 82 144 50 144 l 188 144 q 156 83 156 121 l 156 82 q 178 28 156 50 q 233 6 201 6 l 235 6 q 290 28 267 6 q 313 82 313 50 l 313 83 q 282 144 313 121 l 842 144 q 811 83 811 121 l 811 82 q 833 28 811 50 q 888 6 856 6 l 890 6 q 944 28 922 6 q 967 82 967 50 l 967 83 q 936 144 967 121 l 1028 144 q 1082 174 1060 144 q 1104 244 1104 203 l 1104 278 l 6 278 m 1104 344 l 1104 676 q 1082 747 1104 718 q 1028 775 1060 775 l 908 775 l 1017 883 l 796 1103 l 575 883 l 683 775 l 385 775 l 385 828 l 215 828 l 215 775 l 82 775 q 28 747 50 775 q 6 676 6 718 l 6 344 l 1104 344 m 992 675 l 992 456 l 838 456 l 838 675 l 992 675 m 797 989 l 899 885 l 796 778 l 688 886 l 797 989 m 593 675 l 747 675 l 747 456 l 593 456 l 593 675 m 90 626 q 119 665 90 665 l 203 665 q 232 626 232 665 l 232 486 q 203 447 232 447 l 119 447 q 90 486 90 447 l 90 626 z "},"H":{"ha":1165,"x_min":0,"x_max":1107,"o":"m 0 276 l 0 243 q 22 172 0 201 q 76 143 44 143 l 182 143 q 151 82 151 121 l 151 81 q 174 26 151 49 q 229 4 197 4 l 232 4 q 286 26 264 4 q 308 81 308 49 l 308 82 q 278 143 308 121 l 843 143 q 811 82 811 121 l 811 81 q 834 26 811 49 q 889 4 857 4 l 892 4 q 947 26 924 4 q 969 81 969 49 l 969 82 q 938 143 969 121 l 1029 143 q 1085 172 1063 143 q 1107 243 1107 201 l 1107 276 l 0 276 m 1029 775 l 814 775 l 814 826 l 300 826 l 300 775 l 76 775 q 22 746 44 775 q 0 675 0 717 l 0 343 l 1107 343 l 1107 675 q 1085 746 1107 717 q 1029 775 1063 775 m 263 454 l 106 454 l 106 674 l 263 674 l 263 454 m 508 454 l 353 454 l 353 674 l 508 674 l 508 454 m 754 454 l 599 454 l 599 674 l 754 674 l 754 454 m 1000 454 l 844 454 l 844 674 l 1000 674 l 1000 454 z "},"I":{"ha":1379,"x_min":-3,"x_max":1317,"o":"m 1310 469 q 1265 544 1308 521 l 1213 825 q 1154 918 1197 885 q 1086 947 1122 943 l 1083 947 l 483 946 q 381 893 417 938 q 350 817 353 860 l 294 582 l 85 567 q 23 540 49 564 q -3 479 -3 515 l -3 247 q 23 184 -3 210 q 85 158 49 158 l 188 158 q 247 47 196 92 q 365 3 297 3 q 484 47 433 3 q 543 158 535 92 l 838 158 q 898 47 847 92 q 1017 3 949 3 q 1135 47 1085 3 q 1194 158 1186 92 l 1228 158 q 1290 185 1264 158 q 1315 247 1317 211 l 1310 469 m 367 106 q 312 128 335 106 q 289 183 289 151 q 312 238 289 215 q 367 261 335 261 q 422 238 399 261 q 444 183 444 215 q 422 128 444 151 q 367 106 399 106 m 711 564 l 417 564 l 474 807 q 496 824 474 819 l 711 824 l 711 564 m 1014 103 q 959 126 982 103 q 936 181 936 149 q 959 235 936 213 q 1014 258 982 258 q 1069 235 1046 258 q 1092 181 1092 213 q 1069 126 1092 149 q 1014 103 1046 103 m 835 564 l 835 824 l 1074 824 q 1092 796 1088 817 l 1136 561 l 835 564 z "},"J":{"ha":1217,"x_min":167,"x_max":1004,"o":"m 392 275 q 328 245 356 275 q 293 169 301 215 l 167 125 l 297 92 q 392 4 322 4 q 463 44 433 4 q 492 139 492 83 q 463 235 492 196 q 392 275 433 275 m 904 275 q 841 245 868 275 q 807 169 814 215 l 679 125 l 810 92 q 904 4 835 4 q 975 44 946 4 q 1004 139 1004 83 q 975 235 1004 196 q 904 275 946 275 z "},"K":{"ha":1368,"x_min":158,"x_max":1185,"o":"m 167 247 l 167 247 q 226 223 207 246 q 243 164 246 200 q 158 100 238 103 l 160 10 q 264 40 217 10 q 333 157 326 81 q 296 281 339 232 q 169 338 247 335 l 167 247 m 589 244 l 589 244 q 650 218 629 243 q 665 161 668 199 q 581 99 660 100 l 582 7 q 686 38 639 8 q 756 154 749 78 q 718 279 761 229 q 593 336 669 332 l 589 244 m 1013 246 l 1011 246 q 1074 218 1051 243 q 1088 163 1090 199 q 1004 99 1083 100 l 1006 8 q 1110 39 1063 8 q 1178 154 1172 78 q 1140 279 1185 231 q 1015 336 1093 333 l 1013 246 z "},"L":{"ha":1236,"x_min":4,"x_max":1149,"o":"m 39 497 q 133 522 67 497 q 411 390 221 468 q 171 293 319 358 q 104 232 104 256 q 161 192 104 204 q 239 182 200 182 q 385 197 300 182 q 715 288 535 224 q 996 247 886 247 q 1132 286 1107 247 q 1149 338 1149 313 q 1090 425 1149 386 q 943 376 1039 376 q 900 378 922 376 q 911 461 906 411 q 956 458 935 458 q 1054 488 1021 458 q 976 560 1014 546 q 824 589 950 571 q 724 768 746 733 q 624 874 661 868 q 557 744 557 875 q 569 610 557 689 q 272 657 407 638 q 186 857 233 753 q 176 860 186 857 q 117 857 156 864 q 131 660 115 771 q 107 585 107 638 q 4 514 4 540 q 39 497 4 497 m 692 432 q 706 468 692 453 q 742 483 721 483 q 790 433 790 483 q 740 383 790 383 q 706 397 719 382 q 692 432 692 411 m 507 471 q 522 506 507 492 q 558 521 536 521 q 608 471 608 521 q 594 435 608 450 q 558 421 579 421 q 522 435 536 421 q 507 471 507 450 z "},"M":{"ha":1167,"x_min":50,"x_max":1068,"o":"m 558 336 q 409 399 471 336 q 347 549 347 461 q 408 699 347 638 q 558 761 469 761 q 709 699 647 761 q 771 549 771 638 q 709 398 771 460 q 558 336 647 336 m 604 888 l 504 888 l 504 1060 l 604 1060 l 604 888 m 221 594 l 221 494 l 50 494 l 50 594 l 221 594 m 513 210 l 614 210 l 614 38 l 513 38 l 513 210 m 897 503 l 897 604 l 1068 604 l 1068 503 l 897 503 m 831 756 l 760 828 l 881 949 l 951 878 l 831 756 m 288 342 l 358 271 l 238 149 l 167 219 l 288 342 m 765 276 l 836 347 l 957 226 l 886 154 l 765 276 m 353 821 l 282 750 l 161 872 l 232 943 l 353 821 z "},"N":{"ha":1249,"x_min":0,"x_max":1189,"o":"m 760 985 q 1070 765 951 925 q 1189 403 1189 604 q 1185 325 1189 364 q 1100 426 1157 389 q 974 464 1043 464 q 794 378 864 464 q 656 543 768 499 l 560 146 q 516 36 557 79 q 410 -7 475 -7 q 357 0 386 -7 q 233 168 233 29 q 238 210 233 190 q 290 244 247 253 q 325 192 319 239 q 322 165 322 179 q 376 86 322 99 q 472 153 469 64 l 568 560 q 383 468 453 560 q 306 605 369 551 q 157 658 242 658 q 0 597 67 658 q 222 898 63 783 q 578 1013 381 1013 q 674 1006 626 1013 l 692 1078 q 729 1113 700 1113 q 779 1074 779 1113 q 778 1058 779 1067 l 760 985 z "},"O":{"ha":1081,"x_min":0,"x_max":1029,"o":"m 1029 421 l 982 489 l 825 379 q 786 410 815 389 q 867 579 861 472 q 803 749 867 675 l 871 1033 l 636 1111 l 472 871 q 231 780 328 863 q 136 576 133 697 q 149 514 139 543 q 231 399 174 443 q 199 378 217 393 l 50 488 l 0 421 l 147 313 q 125 207 125 265 q 290 0 126 67 l 725 0 q 897 225 897 74 q 876 313 899 271 l 1029 421 m 310 599 q 267 617 285 599 q 249 660 249 635 q 267 703 249 685 q 310 721 285 721 q 354 703 336 721 q 372 660 372 685 q 354 617 372 635 q 310 599 336 599 m 599 444 l 400 444 l 400 528 l 599 528 l 599 444 m 660 592 q 617 610 635 592 q 599 653 599 628 q 617 696 599 678 q 660 714 635 714 q 704 696 686 714 q 722 653 722 678 q 704 610 722 628 q 660 592 686 592 z "},"P":{"ha":1671,"x_min":3,"x_max":1594,"o":"m 1386 303 q 1372 275 1382 290 l 1582 204 l 1543 89 l 1292 174 q 808 3 1108 3 q 319 179 503 3 l 53 89 l 15 204 l 242 281 q 231 301 233 296 l 3 311 l 7 433 l 201 425 l 201 433 q 268 631 201 538 q 246 931 246 803 q 304 1114 246 1114 q 649 849 397 1114 q 808 864 729 864 q 960 850 882 864 q 1303 1114 1211 1114 q 1361 931 1361 1114 q 1340 642 1361 808 q 1415 433 1415 544 l 1415 425 l 1589 433 l 1594 311 l 1386 303 m 529 382 q 590 407 565 382 q 615 468 615 432 q 590 529 615 504 q 529 554 565 554 q 468 529 493 554 q 443 468 443 504 q 468 407 443 432 q 529 382 493 382 m 1088 382 q 1149 407 1124 382 q 1174 468 1174 432 q 1149 529 1174 504 q 1088 554 1124 554 q 1026 529 1051 554 q 1001 468 1001 504 q 1026 407 1001 432 q 1088 382 1051 382 z "},"Q":{"ha":1083,"x_min":1,"x_max":1042,"o":"m 1025 464 q 882 389 1006 399 q 747 560 776 385 l 904 560 l 904 660 l 747 660 l 747 800 q 678 969 747 899 q 511 1039 608 1039 q 345 969 414 1039 q 276 800 276 899 l 276 476 q 175 379 260 399 q 151 378 165 378 q 13 456 65 378 q 1 400 1 428 q 117 254 1 308 q 226 236 167 236 q 426 311 340 236 q 386 200 432 239 q 267 153 318 153 q 239 157 251 153 q 375 101 272 101 q 488 115 429 101 q 656 281 656 169 q 649 324 656 301 q 839 240 726 240 q 913 250 879 240 q 1042 399 1042 303 q 1025 464 1042 431 m 426 621 q 388 637 404 621 q 372 676 372 653 q 388 715 372 699 q 426 731 404 731 q 466 715 450 731 q 482 676 482 699 q 466 637 482 653 q 426 621 450 621 m 632 679 q 594 695 610 679 q 578 733 578 711 q 594 773 578 757 q 632 789 610 789 q 672 773 656 789 q 688 733 688 757 q 672 695 688 711 q 632 679 656 679 z "},"R":{"ha":1061,"x_min":40,"x_max":1003,"o":"m 957 708 q 1003 460 1003 675 q 972 258 1003 293 q 940 249 964 249 q 608 369 854 249 q 522 306 582 306 q 435 369 461 306 q 103 249 189 249 q 71 258 79 249 q 40 454 40 294 q 86 708 40 675 q 111 715 96 715 q 446 578 196 715 q 522 619 475 619 q 597 578 568 619 q 932 715 847 715 q 957 708 947 715 m 228 488 q 288 435 232 435 q 411 476 335 435 q 276 535 325 535 q 228 488 231 535 m 632 476 q 756 435 708 435 q 817 488 811 435 q 767 535 813 535 q 632 476 718 535 z "},"S":{"ha":1307,"x_min":28,"x_max":1250,"o":"m 88 488 q 58 595 88 515 q 28 713 28 675 q 40 739 28 735 q 154 658 65 746 q 257 569 243 571 q 356 601 268 567 q 546 669 476 649 q 765 706 669 706 q 1047 663 899 706 q 1250 504 1250 604 q 1038 346 1250 403 q 746 304 883 304 q 511 339 625 304 q 347 406 449 358 q 257 440 274 440 q 160 358 235 440 q 58 276 85 276 q 38 304 38 276 q 63 401 38 332 q 88 488 88 469 m 889 517 q 908 469 889 489 q 956 450 928 450 q 1002 469 983 450 q 1021 517 1021 489 q 1002 563 1021 544 q 956 582 983 582 q 908 563 928 582 q 889 517 889 544 z "},"T":{"ha":1258,"x_min":0,"x_max":1233,"o":"m 1233 303 q 1158 436 1233 383 q 946 488 1078 494 q 728 364 824 482 q 675 455 719 415 q 579 494 631 494 q 646 664 646 569 q 595 815 646 747 q 461 913 544 882 l 489 1006 l 617 925 l 663 997 l 488 1107 q 450 1111 469 1118 q 424 1083 431 1104 l 378 932 q 343 935 358 935 q 293 931 319 935 l 250 1075 q 224 1103 243 1094 q 186 1099 204 1110 l 0 981 l 46 908 l 185 996 l 211 908 q 86 809 133 875 q 39 664 39 743 q 128 472 39 551 q 343 393 217 393 q 425 404 383 393 q 438 354 429 379 q 256 275 343 278 q 92 350 167 272 l 31 289 q 258 190 132 186 q 479 278 368 193 q 499 261 488 269 l 403 99 l 476 56 l 579 231 q 608 229 594 229 q 713 279 681 229 q 768 224 735 251 l 768 19 l 853 19 l 853 164 q 936 133 894 142 l 1040 0 l 1107 53 l 1049 128 q 1189 189 1139 136 q 1233 303 1233 236 m 138 742 q 156 786 138 768 q 199 804 174 804 q 243 786 225 804 q 261 742 261 768 q 243 699 261 717 q 199 681 225 681 q 156 699 174 681 q 138 742 138 717 m 304 526 q 271 535 286 528 q 229 592 238 551 l 385 592 q 304 526 372 531 m 479 669 q 436 688 454 669 q 418 731 418 706 q 436 775 418 757 q 479 793 454 793 q 524 775 506 793 q 542 731 542 757 q 524 688 542 706 q 479 669 506 669 z "},"U":{"ha":1265,"x_min":17,"x_max":1235,"o":"m 1235 599 q 1178 447 1214 489 q 1036 135 1183 239 q 685 44 907 44 q 383 108 522 44 q 206 332 206 189 q 344 542 206 446 q 271 625 343 551 q 221 624 244 624 q 17 701 32 624 q 243 786 33 772 q 404 958 276 918 q 526 972 463 978 q 663 892 608 967 q 711 738 711 822 q 626 569 711 626 l 1074 535 l 1069 542 q 1103 539 1086 539 q 1235 599 1175 539 m 481 704 q 526 723 507 704 q 544 768 544 742 q 526 814 544 794 q 481 833 507 833 q 435 814 453 833 q 417 768 417 794 q 435 723 417 742 q 481 704 453 704 z "},"V":{"ha":1096,"x_min":-6,"x_max":1044,"o":"m 854 329 q 969 435 910 363 q 1044 561 1028 507 l 903 515 q 575 619 706 589 q 685 826 685 696 q 614 1000 685 926 q 710 1037 676 1010 q 744 1107 743 1064 l 667 1111 q 658 1097 667 1103 q 481 1075 619 1065 q 421 1082 450 1082 q 419 1082 419 1082 q 417 1082 418 1082 l 417 1082 q 232 1006 308 1081 q 156 826 156 932 q 157 813 156 825 q 0 747 -6 764 q 188 706 6 731 q 379 575 250 594 q 315 460 315 535 q 325 397 315 431 q 426 264 350 310 q 590 221 496 221 q 674 231 632 221 l 583 104 l 479 103 l 479 24 l 624 24 l 761 218 l 722 244 q 768 265 750 254 q 792 281 776 271 l 900 110 l 846 56 l 901 0 l 1001 100 l 854 329 m 358 788 q 314 806 332 788 q 296 850 296 824 q 314 894 296 876 q 358 913 332 913 q 402 894 383 913 q 421 850 421 876 q 402 806 421 824 q 358 788 383 788 z "},"W":{"ha":1119,"x_min":126,"x_max":981,"o":"m 142 953 q 233 978 181 978 q 554 665 368 978 q 886 982 757 982 q 965 960 933 982 q 981 907 981 946 q 872 564 981 792 q 546 56 747 304 q 232 564 353 303 q 126 903 126 789 q 142 953 126 939 z "},"X":{"ha":744,"x_min":0,"x_max":708,"o":"m 486 524 q 611 594 564 549 q 663 708 663 646 q 583 867 664 792 q 658 909 629 876 q 688 985 688 942 q 649 1073 689 1036 q 554 1111 610 1110 q 458 1076 499 1111 q 418 989 418 1040 q 425 951 418 971 q 365 958 393 958 q 310 954 339 958 q 313 975 313 965 q 275 1063 314 1026 q 179 1101 236 1100 q 83 1065 124 1101 q 43 978 43 1029 q 133 860 42 890 q 72 726 72 797 q 119 607 71 663 q 238 529 164 557 q 0 390 0 482 q 8 361 0 376 q 44 346 15 346 q 236 435 108 346 q 211 353 211 394 q 239 271 211 307 q 99 63 99 151 q 118 7 99 28 q 139 0 126 0 q 346 224 221 0 q 563 0 471 0 q 588 7 578 0 q 604 51 604 22 q 463 258 604 133 q 497 350 497 297 q 479 426 497 390 q 660 351 596 351 q 701 367 690 351 q 708 393 708 381 q 486 524 708 469 m 219 704 q 186 719 200 706 q 172 754 172 733 q 187 788 172 774 q 221 801 201 803 q 256 787 242 801 q 269 753 269 772 q 255 718 269 732 q 219 704 240 704 m 464 746 q 478 781 464 767 q 513 794 493 794 q 547 779 533 793 q 561 744 561 765 q 547 710 561 725 q 511 697 532 696 q 478 712 492 697 q 464 746 464 726 z "},"Y":{"ha":993,"x_min":0,"x_max":946,"o":"m 856 992 q 807 1000 832 1000 q 719 967 756 1000 q 682 883 682 933 q 576 922 633 914 q 593 981 593 950 q 568 1053 593 1019 q 501 1103 543 1088 q 453 1111 478 1111 q 365 1078 401 1111 q 328 993 328 1044 q 381 893 328 932 q 271 733 271 836 q 365 554 271 636 q 207 578 267 578 q 138 532 128 578 q 353 450 174 438 q 243 304 243 414 q 107 325 161 325 q 0 256 0 325 q 3 238 0 246 q 125 194 24 194 q 328 225 207 194 q 178 40 178 106 q 199 4 178 14 q 228 -1 211 -1 q 442 208 344 -1 q 518 371 511 267 q 583 174 514 174 q 608 181 594 174 q 643 258 643 199 q 590 464 643 335 q 736 488 674 460 q 826 579 806 518 q 836 635 836 606 q 804 753 836 692 q 887 769 849 747 q 939 831 925 790 q 946 869 946 849 q 922 942 946 908 q 856 992 897 976 m 428 717 q 394 731 408 717 q 379 764 379 744 q 394 799 379 785 q 428 813 408 813 q 462 799 447 813 q 476 764 476 785 q 462 731 476 744 q 428 717 447 717 m 697 615 q 664 629 678 615 q 650 663 650 643 q 664 697 650 682 q 697 711 678 711 q 732 697 718 711 q 746 663 746 683 q 732 629 746 643 q 697 615 718 615 z "},"Z":{"ha":1024,"x_min":0,"x_max":975,"o":"m 863 338 q 919 317 893 317 q 965 350 950 317 q 975 389 975 369 q 892 521 975 451 q 906 610 904 565 q 831 921 910 783 q 521 1111 728 1101 q 175 964 307 1119 q 58 649 58 828 q 72 528 58 590 q 0 404 0 463 q 8 365 0 385 q 56 331 24 331 q 132 374 104 331 q 965 0 336 7 q 763 203 778 64 q 829 383 763 267 q 863 338 846 347 m 283 801 q 235 821 256 801 q 215 868 215 840 q 235 916 215 896 q 283 936 256 936 q 331 916 311 936 q 350 868 350 896 q 331 821 350 840 q 283 801 311 801 m 440 540 q 390 553 411 542 q 338 635 340 576 l 557 635 q 440 540 557 547 m 672 719 q 624 739 644 719 q 604 786 604 758 q 624 834 604 814 q 672 854 644 854 q 719 834 700 854 q 739 786 739 814 q 719 739 739 758 q 672 719 700 719 z "},"[":{"ha":1124,"x_min":0,"x_max":1071,"o":"m 594 739 q 710 750 656 750 q 940 660 871 750 q 979 543 979 608 q 965 461 979 504 q 801 257 924 335 q 0 0 526 83 q 53 413 53 238 q 96 763 53 614 q 308 1003 160 986 q 335 1004 321 1004 q 519 772 500 1004 q 889 1075 685 996 q 1071 1111 996 1117 l 1064 1032 q 911 999 1003 1036 q 594 739 738 928 m 519 772 q 390 564 450 679 q 165 189 229 253 l 221 131 q 461 528 290 199 q 594 739 522 646 q 521 724 556 732 q 519 772 522 742 z "},"\\":{"ha":1076,"x_min":11,"x_max":1051,"o":"m 92 68 q 28 117 64 96 l 18 89 q 11 51 11 68 q 23 15 11 26 q 57 3 35 3 q 100 13 76 3 l 126 21 q 92 68 111 49 m 231 417 l 835 1019 q 769 1035 815 1026 l 146 413 l 231 417 m 279 375 l 297 290 l 385 271 l 1004 890 l 896 990 l 279 375 m 365 210 l 243 236 l 219 351 l 106 347 l 49 179 q 136 114 97 153 q 188 40 167 83 l 372 99 l 365 210 m 428 224 l 433 147 l 1047 761 q 1036 831 1051 786 l 428 224 z "},"]":{"ha":1144,"x_min":0,"x_max":1089,"o":"m 7 147 q 126 249 24 147 q 258 351 228 351 q 269 347 265 351 q 174 225 276 339 q 64 78 64 106 q 74 67 64 67 q 213 169 99 67 q 342 272 326 272 q 349 263 349 272 q 249 130 349 236 q 149 6 149 24 q 156 0 149 0 q 271 56 185 0 q 436 190 369 118 q 521 360 521 282 q 494 439 521 403 q 842 753 693 607 q 1089 1078 1089 997 q 1058 1111 1089 1111 q 440 492 932 1111 q 364 513 404 513 q 192 432 285 513 q 56 271 118 367 q 0 156 0 185 q 7 147 0 147 z "},"^":{"ha":1151,"x_min":0,"x_max":1097,"o":"m 1097 881 q 1032 1044 1097 976 q 875 1111 967 1111 q 718 1044 783 1111 q 653 881 653 976 q 665 804 653 842 q 533 819 599 819 q 433 811 483 819 q 443 881 443 844 q 378 1044 443 976 q 222 1111 314 1111 q 65 1044 131 1111 q 0 881 0 976 q 40 748 0 807 q 144 664 81 689 q 38 410 38 551 q 183 120 38 240 q 533 0 328 0 q 884 120 739 0 q 1029 410 1029 240 q 929 656 1029 546 q 1049 738 1001 675 q 1097 881 1097 800 m 279 429 q 231 450 251 429 q 210 499 210 471 q 231 548 210 528 q 279 568 251 568 q 328 548 308 568 q 349 499 349 528 q 328 450 349 471 q 279 429 308 429 m 532 196 q 397 246 454 196 q 340 328 354 282 l 424 356 q 532 285 449 285 q 643 349 618 285 l 642 349 l 725 319 q 683 256 714 288 q 532 196 625 196 m 783 429 q 734 450 754 429 q 714 499 714 471 q 734 548 714 528 q 783 568 754 568 q 831 548 811 568 q 851 499 851 528 q 831 450 851 471 q 783 429 811 429 z "},"_":{"ha":815,"x_min":0,"x_max":776,"o":"m 644 556 q 664 593 653 571 q 746 931 746 792 q 721 1044 746 999 q 628 1106 690 1106 q 489 967 549 1106 q 424 632 429 828 q 390 633 404 633 q 321 628 357 633 q 258 969 318 828 q 117 1111 197 1111 q 24 1051 56 1111 q 0 936 0 1004 q 82 600 0 797 q 113 535 94 574 q 3 317 3 435 q 116 92 3 185 q 390 0 229 0 q 663 92 550 0 q 776 317 776 185 q 644 556 776 456 m 176 296 q 131 315 150 296 q 113 360 113 333 q 131 406 113 386 q 176 425 150 425 q 222 406 203 425 q 242 360 242 386 q 222 315 242 333 q 176 296 203 296 m 458 136 l 321 136 l 321 211 l 458 211 l 458 136 m 590 296 q 545 315 564 296 q 526 360 526 333 q 545 406 526 386 q 590 425 564 425 q 635 406 617 425 q 654 360 654 386 q 635 315 654 333 q 590 296 617 296 z "},"`":{"ha":1258,"x_min":0,"x_max":1197,"o":"m 100 178 l 0 617 l 365 397 l 611 799 l 858 397 l 1197 604 l 1114 178 l 100 178 m 1096 0 l 118 0 l 118 92 l 1096 92 l 1096 0 m 57 911 l 138 985 l 283 824 l 201 751 l 57 911 m 542 1111 l 651 1111 l 651 894 l 543 894 l 542 1111 m 1176 907 l 1038 740 l 954 811 l 1093 976 l 1176 907 z "},"a":{"ha":1335,"x_min":22,"x_max":1310,"o":"m 388 529 q 386 558 386 553 q 521 886 386 751 q 849 1021 656 1021 q 1176 886 1042 1021 q 1310 558 1310 751 q 1175 232 1310 367 q 849 97 1040 97 q 619 158 725 97 q 450 324 514 218 q 367 328 399 331 q 274 304 328 325 q 22 150 154 258 q 125 300 78 211 q 197 426 182 407 q 388 529 256 501 m 1190 699 q 1168 753 1190 731 q 1114 776 1146 776 q 1059 753 1082 776 q 1036 699 1036 731 q 1059 644 1036 667 q 1114 622 1082 622 q 1168 644 1146 622 q 1190 699 1190 667 m 888 349 q 1065 471 1044 358 l 714 471 q 888 349 743 357 m 640 583 q 695 606 672 583 q 718 661 718 629 q 695 716 718 693 q 640 739 672 739 q 586 716 608 739 q 564 661 564 693 q 586 606 564 629 q 640 583 608 583 z "},"b":{"ha":1099,"x_min":-44,"x_max":1057,"o":"m 656 310 q 592 338 618 310 q 567 407 567 367 q 592 474 567 446 q 656 503 618 503 q 719 474 693 503 q 746 407 746 446 q 719 338 746 367 q 656 310 693 310 m 40 1092 q 94 1111 65 1111 q 458 725 235 1111 q 672 792 556 792 q 944 676 831 792 q 1057 396 1057 560 q 944 116 1057 232 q 672 0 831 0 q 400 116 513 0 q 288 396 288 232 q 358 625 288 522 q 101 858 193 751 q 40 1092 -44 1025 m 713 154 q 804 224 782 179 q 821 308 818 250 q 839 394 824 367 q 876 507 876 461 q 810 626 876 572 q 728 656 775 656 q 586 594 656 656 q 488 435 517 532 q 476 354 476 394 q 527 204 476 265 q 653 143 578 143 q 713 154 682 143 m 154 1011 q 141 1044 154 1031 q 108 1058 128 1058 q 77 1044 90 1058 q 64 1011 64 1031 q 77 977 64 992 q 108 963 90 963 q 141 977 128 963 q 154 1011 154 992 z "},"c":{"ha":1049,"x_min":4,"x_max":982,"o":"m 47 382 l 283 581 q 336 599 304 599 q 417 568 381 599 l 460 533 l 572 671 q 564 707 564 688 q 579 750 564 732 l 836 1061 q 890 1086 856 1086 q 949 1064 922 1086 q 982 996 982 1036 q 967 951 982 971 l 710 640 q 635 618 683 607 l 522 482 l 567 446 q 613 356 613 408 q 603 318 613 335 l 449 53 q 347 -7 414 -7 q 269 22 304 -7 l 50 201 q 4 293 4 239 q 47 382 4 346 m 890 956 q 925 990 925 956 q 890 1026 925 1026 q 856 990 856 1026 q 890 956 856 956 m 367 94 q 400 114 386 94 l 542 339 q 533 381 557 361 q 494 378 510 400 l 342 163 q 332 133 332 150 q 367 94 332 94 m 256 190 q 289 207 276 190 l 451 415 q 444 456 468 436 q 404 454 422 475 l 232 256 q 219 226 219 243 q 256 190 219 190 m 140 283 q 175 300 161 283 l 356 492 q 351 531 375 511 q 310 531 329 550 l 117 349 q 103 318 103 335 q 140 283 103 283 z "},"d":{"ha":1371,"x_min":0,"x_max":1325,"o":"m 81 625 q 0 411 0 526 q 192 101 0 218 q 558 0 356 0 q 851 63 717 0 q 679 143 771 90 l 726 229 q 1008 128 900 133 q 1276 350 1243 169 q 1279 389 1281 371 q 1325 493 1325 433 q 1260 571 1325 571 q 1167 513 1207 571 q 1093 526 1133 522 q 975 685 1058 614 l 982 685 q 939 901 969 757 q 813 1100 893 1100 q 621 821 728 1100 q 558 824 588 824 q 447 815 501 824 q 219 1111 310 1111 q 107 900 144 1111 q 81 625 88 782 m 885 499 q 834 519 856 499 q 813 569 813 539 q 834 620 813 599 q 885 642 856 642 q 937 620 915 642 q 958 569 958 599 q 937 519 958 539 q 885 499 915 499 m 438 447 q 385 468 407 447 q 364 519 364 489 q 386 569 364 549 q 438 590 408 590 q 489 569 468 590 q 510 519 510 549 q 490 468 510 489 q 438 447 469 447 z "},"e":{"ha":1079,"x_min":4,"x_max":1018,"o":"m 335 983 q 261 746 261 875 q 421 415 261 542 l 479 490 l 556 429 l 504 364 q 589 335 544 344 q 575 279 590 300 q 464 239 547 240 l 464 167 q 650 265 610 168 q 661 325 661 292 q 682 324 685 324 q 1018 492 892 324 q 865 144 1013 288 q 511 0 718 0 q 153 149 301 0 q 4 508 4 299 q 96 799 4 669 q 335 983 188 928 m 281 304 q 326 323 307 304 q 344 368 344 342 q 326 414 344 394 q 281 433 307 433 q 235 414 254 433 q 217 368 217 394 q 235 323 217 342 q 281 304 254 304 z "},"f":{"ha":857,"x_min":0,"x_max":817,"o":"m 694 694 l 563 788 l 632 886 q 622 939 653 917 q 571 929 592 960 l 500 829 q 461 838 481 838 q 394 804 417 838 l 14 265 q 0 221 0 246 q 42 143 0 172 l 219 18 q 276 0 246 0 q 343 33 319 0 l 724 572 q 738 617 738 592 q 694 694 738 665 m 325 422 l 332 431 q 372 438 349 454 l 381 432 q 388 392 404 415 l 381 383 q 340 376 364 360 l 332 382 q 325 422 308 399 m 232 488 l 238 496 q 278 503 254 519 l 286 497 q 293 457 310 481 l 288 449 q 247 442 271 425 l 239 447 q 232 488 215 464 m 171 283 l 164 275 q 124 268 147 251 l 115 274 q 108 314 92 290 l 115 322 q 156 329 132 346 l 164 324 q 171 283 188 307 m 178 361 q 171 401 154 378 l 176 410 q 217 417 193 433 l 225 411 q 232 371 249 394 l 226 363 q 186 356 210 339 l 178 361 m 264 217 l 258 208 q 218 201 242 185 l 210 208 q 203 249 186 224 l 208 256 q 249 264 225 279 l 257 257 q 264 217 281 240 m 271 294 q 264 335 247 311 l 271 343 q 311 350 288 367 l 319 344 q 326 304 343 328 l 319 296 q 279 289 303 272 l 271 294 m 361 149 l 354 140 q 314 133 339 117 l 307 140 q 299 181 283 157 l 306 189 q 346 196 322 213 l 354 189 q 361 149 378 174 m 422 236 l 417 228 q 376 221 400 204 l 368 226 q 361 267 344 243 l 367 275 q 407 282 383 299 l 415 276 q 422 236 439 260 m 483 324 l 478 315 q 438 308 461 292 l 429 314 q 422 354 406 331 l 428 363 q 468 369 444 386 l 476 364 q 483 324 500 347 m 646 597 l 547 460 q 504 456 532 436 l 351 564 q 340 606 325 582 l 439 743 q 482 747 454 767 l 635 640 q 646 597 661 621 m 675 957 l 739 1049 l 692 1082 l 628 990 l 675 957 m 593 1000 l 579 1111 l 522 1104 l 536 993 l 593 1000 m 694 929 l 804 953 l 817 897 l 707 872 l 694 929 z "},"g":{"ha":1164,"x_min":-3,"x_max":1097,"o":"m 1097 278 l 1097 244 q 1074 174 1097 203 q 1019 144 1051 144 l 915 144 q 946 83 946 121 l 946 82 q 923 28 946 50 q 869 6 900 6 l 867 6 q 813 28 835 6 q 790 82 790 50 l 790 83 q 821 144 790 121 l 260 144 q 290 83 290 121 l 290 82 q 268 28 290 50 q 214 6 246 6 l 213 6 q 158 28 181 6 q 135 82 135 50 l 135 83 q 165 144 135 121 l 75 144 q 20 174 43 144 q -3 244 -3 203 l -3 278 l 1097 278 m -3 344 l -3 676 q 20 747 -3 718 q 75 775 43 775 l 193 775 l 85 883 l 306 1103 l 526 883 l 419 775 l 717 775 l 717 828 l 886 828 l 886 775 l 1019 775 q 1074 747 1051 775 q 1097 676 1097 718 l 1097 344 l -3 344 m 110 675 l 110 456 l 265 456 l 265 675 l 110 675 m 304 989 l 203 885 l 307 778 l 415 886 l 304 989 m 510 675 l 354 675 l 354 456 l 510 456 l 510 675 m 1013 626 q 982 665 1013 665 l 900 665 q 869 626 869 665 l 869 486 q 900 447 869 447 l 982 447 q 1013 486 1013 447 l 1013 626 z "},"h":{"ha":906,"x_min":0,"x_max":863,"o":"m 233 558 q 272 574 256 558 q 288 613 288 589 q 272 651 288 635 q 233 667 256 667 q 195 651 211 667 q 179 613 179 635 q 195 574 179 589 q 233 558 211 558 m 550 563 q 588 578 572 563 q 604 617 604 594 q 588 655 604 639 q 550 671 572 671 q 512 655 528 671 q 496 617 496 639 q 512 578 496 594 q 550 563 528 563 m 283 464 q 397 386 314 381 q 511 461 478 390 l 453 488 l 453 488 q 394 449 435 451 q 343 486 358 447 l 343 488 q 342 489 343 488 l 283 464 m 754 817 l 501 817 q 665 1028 671 940 q 631 1092 664 1065 q 561 1118 599 1118 q 517 1106 538 1118 q 404 844 433 1058 q 292 1110 374 1064 q 246 1122 269 1122 q 201 1111 224 1122 q 142 1033 144 1083 q 313 817 138 943 l 108 817 q 32 785 64 817 q 0 708 0 754 l 0 285 q 32 207 0 239 q 108 175 64 175 l 124 175 l 93 32 q 133 3 99 14 q 176 15 161 -1 l 228 175 l 613 175 l 664 13 q 707 0 681 -6 q 726 7 718 3 q 747 29 744 17 l 717 175 l 754 175 q 831 207 799 175 q 863 285 863 239 l 863 708 q 831 785 863 754 q 754 817 799 817 m 474 876 q 547 1050 501 1025 q 578 1050 561 1058 q 601 1025 601 1039 q 474 876 604 975 l 474 876 m 206 1029 q 229 1054 206 1043 q 260 1056 247 1063 q 333 881 306 1029 q 206 1029 203 981 m 682 429 q 650 353 682 385 q 574 321 618 321 l 214 321 q 138 353 169 321 q 107 429 107 385 l 107 632 q 138 708 107 676 q 214 739 169 739 l 574 739 q 650 708 618 739 q 682 632 682 676 l 682 429 m 761 258 q 717 303 717 258 q 761 347 717 347 q 806 303 806 347 q 761 258 806 258 z "},"i":{"ha":1379,"x_min":7,"x_max":1325,"o":"m 13 469 q 57 544 14 521 l 110 825 q 168 918 125 885 q 236 947 201 943 l 239 947 l 839 946 q 942 893 906 938 q 974 817 969 860 l 1029 582 l 1238 567 q 1299 540 1274 564 q 1325 479 1325 515 l 1325 247 q 1299 184 1325 210 q 1238 158 1274 158 l 1136 158 q 1076 47 1126 92 q 957 3 1025 3 q 838 47 889 3 q 779 158 788 92 l 485 158 q 426 47 476 92 q 307 3 375 3 q 188 47 239 3 q 129 158 138 92 l 96 158 q 33 185 58 158 q 7 247 7 211 l 13 469 m 956 106 q 1011 128 989 106 q 1033 183 1033 151 q 1011 238 1033 215 q 956 261 989 261 q 901 238 924 261 q 878 183 878 215 q 901 128 878 151 q 956 106 924 106 m 613 564 l 906 564 l 850 807 q 826 824 849 819 l 613 824 l 613 564 m 308 103 q 363 126 340 103 q 386 181 386 149 q 363 235 386 213 q 308 258 340 258 q 253 235 276 258 q 231 181 231 213 q 253 126 231 149 q 308 103 276 103 m 488 564 l 488 824 l 250 824 q 231 796 235 817 l 186 561 l 488 564 z "},"j":{"ha":1217,"x_min":211,"x_max":1049,"o":"m 824 271 q 887 241 860 271 q 922 167 914 211 l 1049 121 l 918 88 q 824 0 893 0 q 753 40 783 0 q 724 135 724 79 q 753 231 724 192 q 824 271 783 271 m 311 271 q 374 241 347 271 q 410 167 401 211 l 536 121 l 406 88 q 311 0 381 0 q 240 40 269 0 q 211 135 211 79 q 240 231 211 192 q 311 271 269 271 z "},"k":{"ha":1368,"x_min":168,"x_max":1193,"o":"m 1186 243 l 1186 243 q 1124 215 1146 240 q 1110 160 1107 196 q 1193 96 1115 97 l 1192 6 q 1089 36 1136 6 q 1019 151 1025 75 q 1057 276 1014 228 q 1182 333 1106 331 l 1186 243 m 764 240 l 764 240 q 701 214 724 239 q 688 157 685 193 q 771 93 693 96 l 769 3 q 667 33 714 3 q 597 150 603 74 q 635 274 592 225 q 760 331 683 328 l 764 240 m 340 242 l 340 242 q 279 214 301 239 q 265 157 261 194 q 349 94 269 96 l 347 3 q 243 33 290 4 q 175 150 181 74 q 211 275 168 226 q 338 332 260 329 l 340 242 z "},"l":{"ha":1236,"x_min":1,"x_max":1147,"o":"m 1111 497 q 1017 522 1083 497 q 739 390 929 468 q 979 293 831 358 q 1047 232 1047 256 q 989 192 1047 204 q 911 182 950 182 q 765 197 850 182 q 435 288 615 224 q 154 247 264 247 q 18 286 44 247 q 1 338 1 313 q 60 425 1 386 q 208 376 111 376 q 250 378 228 376 q 239 461 246 411 q 196 458 215 458 q 97 488 129 458 q 174 560 138 546 q 326 589 200 571 q 426 768 404 733 q 526 874 489 868 q 593 744 593 875 q 581 610 593 689 q 879 657 743 638 q 964 857 917 753 q 974 860 965 857 q 1033 857 994 864 q 1019 660 1036 771 q 1043 585 1043 638 q 1147 514 1147 540 q 1111 497 1147 497 m 460 432 q 444 468 458 453 q 410 483 429 483 q 361 433 360 483 q 410 383 361 383 q 445 397 431 382 q 460 432 460 411 m 643 471 q 628 506 643 492 q 593 521 614 521 q 542 471 542 521 q 556 435 542 450 q 593 421 571 421 q 628 435 614 421 q 643 471 643 450 z "},"m":{"ha":1081,"x_min":-3,"x_max":1029,"o":"m 818 819 q 704 789 757 819 q 624 894 683 854 q 494 933 565 933 q 369 896 425 933 q 293 797 314 858 q 210 814 253 814 q 60 754 124 814 q -3 610 -3 694 q 43 483 -3 539 q 161 411 89 428 q 213 257 153 322 q 363 192 274 192 q 519 265 458 192 q 697 194 592 194 q 842 240 779 194 q 917 360 904 286 q 913 447 925 403 q 1029 622 1029 500 q 966 763 1029 706 q 818 819 903 819 m 511 539 q 508 536 510 538 q 504 539 507 538 q 511 539 503 539 m 310 550 q 267 567 285 550 q 250 610 250 585 q 267 652 250 635 q 310 669 285 669 q 352 652 335 669 q 369 610 369 635 q 352 567 369 585 q 310 550 335 550 m 504 375 q 378 454 419 375 l 442 488 q 504 446 464 446 q 568 481 549 446 l 568 481 l 631 447 q 504 375 593 375 m 704 554 q 662 572 679 554 q 644 614 644 589 q 662 656 644 639 q 704 674 679 674 q 747 656 729 674 q 764 614 764 639 q 747 572 764 589 q 704 554 729 554 z "},"n":{"ha":1132,"x_min":7,"x_max":1075,"o":"m 844 944 q 824 943 836 944 q 728 1046 796 1004 q 578 1092 656 1092 q 465 1053 513 1092 q 392 968 431 1026 q 275 997 338 997 q 119 942 183 997 q 54 810 54 888 q 119 677 54 732 q 275 622 183 622 q 315 625 294 622 q 394 515 326 560 q 554 471 463 471 q 765 561 696 471 q 844 549 804 549 q 1008 607 940 549 q 1075 746 1075 665 q 1008 886 1075 828 q 844 944 940 944 m 196 494 l 128 390 l 197 344 l 265 449 l 196 494 m 75 289 l 7 185 l 78 139 l 146 243 l 75 289 m 483 399 l 415 294 l 486 249 l 554 353 l 483 399 m 832 433 l 764 328 l 833 283 l 901 388 l 832 433 m 718 235 l 650 131 l 719 85 l 788 190 l 718 235 m 357 190 l 289 85 l 360 40 l 428 144 l 357 190 z "},"o":{"ha":1164,"x_min":108,"x_max":1043,"o":"m 572 639 q 475 693 513 639 q 442 804 442 742 q 475 915 442 867 q 572 971 513 971 q 668 915 631 971 q 701 804 701 867 q 668 694 701 743 q 572 639 631 639 m 232 508 q 142 568 178 508 q 108 678 108 621 q 133 769 108 732 q 214 814 163 814 q 306 754 269 814 q 338 644 338 703 q 313 553 338 592 q 232 508 282 508 m 908 513 q 829 558 858 513 q 803 651 803 599 q 857 792 803 738 q 938 829 894 829 q 1018 783 989 829 q 1043 690 1043 744 q 990 550 1043 604 q 908 513 953 513 m 738 450 q 856 276 856 386 q 760 117 856 178 q 572 64 676 64 q 385 117 468 64 q 288 276 288 178 q 389 440 288 375 l 388 442 q 450 531 388 499 q 564 557 501 557 q 672 532 622 557 q 738 450 733 501 z "},"p":{"ha":1671,"x_min":0,"x_max":1592,"o":"m 1385 299 q 1369 271 1379 288 l 1579 201 l 1540 86 l 1289 169 q 806 0 1106 0 q 318 175 500 0 l 51 86 l 13 201 l 239 278 q 228 299 231 293 l 0 307 l 6 429 l 199 421 l 199 431 q 267 626 199 535 q 244 926 244 799 q 301 1111 244 1111 q 647 846 394 1111 q 806 861 726 861 q 957 847 881 861 q 1300 1111 1208 1111 q 1358 926 1358 1111 q 1338 638 1358 806 q 1413 431 1413 542 l 1413 422 l 1586 429 l 1592 307 l 1385 299 m 639 328 l 679 429 l 368 553 l 328 453 l 639 328 m 939 419 l 978 318 l 1210 407 l 1210 414 l 1229 414 l 1290 438 l 1251 539 l 939 419 z "},"q":{"ha":1083,"x_min":1,"x_max":1042,"o":"m 17 468 q 160 392 36 401 q 296 564 267 389 l 139 564 l 139 664 l 296 664 l 296 804 q 365 972 296 903 q 531 1042 433 1042 q 697 972 628 1042 q 765 804 765 903 l 765 481 q 867 383 783 403 q 892 381 878 381 q 1031 460 978 381 q 1042 404 1042 431 q 926 258 1042 313 q 817 240 875 240 q 617 314 701 240 q 657 203 611 242 q 775 156 725 156 q 804 161 792 156 q 668 104 771 104 q 556 119 614 104 q 388 285 388 174 q 394 326 388 306 q 204 243 315 243 q 131 254 164 243 q 1 403 1 306 q 17 468 1 433 m 615 625 q 655 641 639 625 q 671 679 671 657 q 655 719 671 703 q 615 735 639 735 q 577 719 593 735 q 561 679 561 703 q 577 641 561 657 q 615 625 593 625 m 410 682 q 449 698 433 682 q 465 738 465 714 q 449 776 465 760 q 410 792 433 792 q 372 776 388 792 q 356 738 356 760 q 372 698 356 714 q 410 682 388 682 z "},"r":{"ha":1171,"x_min":0,"x_max":1119,"o":"m 1021 0 l 44 0 q 0 44 17 0 q 44 90 0 90 l 1021 90 q 1065 44 1049 90 q 1021 0 1065 0 m 1119 454 q 775 232 1119 281 l 739 156 l 290 156 l 69 675 l 996 675 l 926 554 q 1007 568 972 568 q 1119 454 1119 568 m 1033 469 q 1007 483 1031 483 q 874 443 958 483 l 818 325 q 1033 469 1056 372 m 407 889 q 368 981 368 926 q 406 1073 368 1035 q 499 1111 444 1111 q 591 1073 553 1111 q 629 981 629 1035 q 598 896 629 932 q 519 853 567 860 l 501 747 q 407 889 429 867 z "},"s":{"ha":1307,"x_min":32,"x_max":1254,"o":"m 1194 488 q 1219 401 1194 468 q 1243 304 1243 333 q 1224 276 1243 276 q 1122 358 1196 276 q 1025 440 1047 440 q 935 404 1011 440 q 771 339 844 361 q 536 304 657 304 q 244 346 399 304 q 32 504 32 403 q 235 663 32 604 q 517 706 383 706 q 736 668 608 706 q 925 601 814 646 q 1025 568 1014 567 q 1128 660 1033 569 q 1240 738 1215 743 q 1254 711 1254 735 q 1224 594 1254 674 q 1194 488 1194 515 m 393 517 q 374 563 393 544 q 326 582 354 582 q 279 563 299 582 q 260 517 260 544 q 279 469 260 489 q 326 450 299 450 q 374 469 354 450 q 393 517 393 489 z "},"t":{"ha":1258,"x_min":3,"x_max":1236,"o":"m 3 308 q 78 442 3 388 q 290 493 158 499 q 507 368 413 486 q 561 459 517 419 q 657 499 606 499 q 590 668 590 574 q 641 819 590 751 q 775 918 692 886 l 746 1010 l 619 929 l 574 1001 l 749 1111 q 786 1115 767 1124 q 811 1088 806 1108 l 858 938 q 893 939 878 939 q 943 935 915 939 l 986 1079 q 1013 1107 993 1099 q 1050 1103 1032 1114 l 1236 985 l 1190 913 l 1051 1000 l 1025 913 q 1150 813 1103 879 q 1197 668 1197 747 q 1108 478 1197 557 q 893 399 1019 399 q 811 408 851 399 q 799 358 807 383 q 981 279 893 282 q 1144 354 1069 278 l 1206 294 q 978 194 1103 190 q 756 283 868 197 q 738 267 749 274 l 833 103 l 760 60 l 657 236 q 628 233 642 233 q 524 283 556 233 q 468 228 501 257 l 468 24 l 383 24 l 383 169 q 300 138 342 146 l 196 4 l 129 57 l 188 132 q 47 193 97 142 q 3 308 3 240 m 1099 747 q 1081 790 1099 772 q 1038 808 1063 808 q 993 790 1011 808 q 975 747 975 772 q 993 703 975 721 q 1038 685 1011 685 q 1081 703 1063 685 q 1099 747 1099 721 m 932 531 q 965 539 950 532 q 1007 596 999 556 l 851 596 q 932 531 864 536 m 757 674 q 800 692 782 674 q 818 736 818 710 q 800 779 818 761 q 757 797 782 797 q 713 779 731 797 q 694 736 694 761 q 713 692 694 710 q 757 674 731 674 z "},"u":{"ha":1265,"x_min":25,"x_max":1243,"o":"m 25 599 q 82 447 46 489 q 225 135 76 239 q 575 44 353 44 q 876 108 738 44 q 1054 332 1054 189 q 915 542 1054 446 q 989 625 917 551 q 1039 624 1015 624 q 1243 701 1228 624 q 1017 786 1226 772 q 856 958 983 918 q 733 972 797 978 q 599 892 651 967 q 549 738 549 822 q 633 569 549 626 l 186 535 l 190 542 q 157 539 174 539 q 25 599 85 539 m 781 704 q 735 723 754 704 q 717 768 717 742 q 735 814 717 794 q 781 833 754 833 q 826 814 807 833 q 844 768 844 794 q 826 723 844 742 q 781 704 807 704 z "},"v":{"ha":1096,"x_min":21,"x_max":1071,"o":"m 211 329 q 96 435 156 363 q 21 561 36 507 l 163 515 q 490 619 360 589 q 381 826 381 697 q 451 1000 381 926 q 357 1036 388 1011 q 319 1107 322 1064 l 399 1111 q 407 1097 399 1103 q 585 1075 446 1065 q 644 1082 615 1082 q 646 1082 644 1082 q 649 1082 647 1082 l 649 1082 q 833 1006 757 1081 q 908 826 908 932 q 908 813 908 825 q 1065 747 1071 764 q 878 706 1060 731 q 686 575 815 594 q 750 460 750 535 q 740 397 750 431 q 638 264 715 310 q 475 221 568 221 q 392 231 433 221 l 481 104 l 586 103 l 586 24 l 440 24 l 304 218 l 343 244 q 297 265 314 254 q 274 282 289 271 l 165 111 l 219 56 l 164 0 l 64 100 l 211 329 m 707 788 q 751 806 733 788 q 769 850 769 825 q 751 894 769 876 q 707 913 733 913 q 663 894 681 913 q 644 850 644 876 q 663 806 644 825 q 707 788 681 788 z "},"w":{"ha":1221,"x_min":0,"x_max":1163,"o":"m 569 1079 q 597 1111 581 1111 q 625 1078 614 1111 l 706 838 q 749 780 717 804 q 817 756 782 756 l 1076 751 q 1117 731 1117 750 q 1093 697 1117 715 l 893 543 q 846 442 846 507 q 850 411 846 425 l 922 169 q 926 146 926 156 q 910 124 926 124 q 878 139 897 124 l 667 293 q 599 314 639 314 q 531 293 558 314 l 319 139 q 288 124 300 124 q 271 146 271 124 q 274 169 271 157 l 340 403 q 344 433 344 417 q 297 538 344 500 l 101 696 q 79 729 79 714 q 121 753 79 751 l 368 764 q 438 790 404 765 q 483 847 471 814 l 569 1079 m 210 994 l 314 875 l 381 935 l 276 1053 l 210 994 m 928 1047 l 838 917 l 910 865 l 1001 996 l 928 1047 m 1163 406 l 1010 446 l 988 358 l 1140 318 l 1163 406 m 35 328 l 181 389 l 146 472 l 0 411 l 35 328 m 650 0 l 650 149 l 561 149 l 561 0 l 650 0 z "},"x":{"ha":1111,"x_min":-1,"x_max":1061,"o":"m 885 889 q 851 856 867 889 l 851 1013 l 561 1013 l 561 1111 l 486 1111 l 486 1013 l 199 1013 l 199 844 q 161 889 183 889 q 124 845 139 889 q 108 739 108 801 q 124 633 108 676 q 161 589 139 589 q 199 633 183 589 l 199 453 l 851 453 l 851 622 q 885 589 867 589 q 922 633 907 589 q 938 739 938 676 q 922 845 938 801 q 885 889 907 889 m 347 699 q 292 722 315 699 q 269 776 269 744 q 292 831 269 808 q 347 854 315 854 q 402 831 379 854 q 425 776 425 808 q 402 722 425 744 q 347 699 379 699 m 638 571 l 419 571 l 419 633 l 638 633 l 638 571 m 699 699 q 644 722 667 699 q 621 776 621 744 q 644 831 621 808 q 699 854 667 854 q 753 831 731 854 q 776 776 776 808 q 753 722 776 744 q 699 699 731 699 m 824 258 q 865 190 832 217 q 940 163 899 163 q 1021 196 986 163 l 932 239 l 949 311 l 1058 278 q 1026 365 1061 328 q 940 401 990 401 q 836 338 869 401 l 746 354 l 746 397 l 317 397 l 317 356 l 224 339 q 118 403 190 403 q 33 367 68 403 q 0 281 -1 331 l 110 314 l 126 242 l 38 199 q 118 165 72 165 q 192 192 160 165 q 235 258 225 218 l 317 274 l 317 114 q 289 114 297 114 q 154 97 210 114 q 99 57 99 81 q 154 17 99 33 q 289 0 210 0 q 422 17 367 0 q 478 57 478 33 q 476 60 478 58 l 601 60 q 600 57 601 60 q 656 17 600 33 q 790 0 711 0 q 924 17 868 0 q 979 57 979 33 q 924 97 979 81 q 790 114 868 114 q 746 113 769 114 l 746 272 l 824 258 z "},"y":{"ha":993,"x_min":-7,"x_max":939,"o":"m 83 999 q 132 1007 107 1007 q 220 974 183 1007 q 257 892 257 942 q 363 931 306 921 q 346 988 346 957 q 371 1062 346 1028 q 438 1110 396 1096 q 486 1118 461 1118 q 574 1085 538 1118 q 611 1001 611 1051 q 558 900 611 940 q 668 742 668 844 q 574 561 668 644 q 732 586 672 586 q 801 540 811 586 q 586 457 765 444 q 696 311 696 422 q 832 332 776 332 q 939 263 939 332 q 936 246 939 253 q 814 201 915 201 q 611 233 732 201 q 761 47 761 114 q 740 11 761 22 q 711 7 728 7 q 497 215 594 7 q 421 379 428 274 q 356 181 425 181 q 331 188 344 181 q 296 265 296 206 q 349 472 296 342 q 203 496 265 468 q 113 588 133 526 q 103 643 103 613 q 135 760 103 700 q 52 776 90 754 q 0 838 14 797 q -7 876 -7 857 q 17 949 -7 915 q 83 999 42 983 m 511 724 q 545 738 531 724 q 560 772 560 751 q 545 806 560 792 q 511 819 531 819 q 477 806 492 819 q 463 772 463 792 q 477 738 463 751 q 511 724 492 724 m 242 622 q 275 636 261 622 q 289 671 289 650 q 275 704 289 690 q 242 718 261 718 q 207 704 221 718 q 193 671 193 690 q 207 636 193 650 q 242 622 221 622 z "},"z":{"ha":1024,"x_min":10,"x_max":985,"o":"m 122 338 q 65 317 90 317 q 18 350 35 317 q 10 389 10 369 q 93 521 10 451 q 79 610 81 565 q 153 921 75 783 q 464 1111 256 1101 q 810 964 678 1119 q 926 649 926 828 q 913 528 926 590 q 985 404 985 463 q 976 365 985 385 q 929 331 960 331 q 853 374 881 331 q 18 0 649 7 q 222 203 207 64 q 156 383 222 267 q 122 338 139 347 m 701 801 q 749 821 729 801 q 768 868 768 840 q 749 916 768 896 q 701 936 729 936 q 654 916 674 936 q 635 868 635 896 q 654 821 635 840 q 701 801 674 801 m 543 540 q 594 553 572 542 q 647 635 644 576 l 426 635 q 543 540 426 547 m 313 719 q 360 739 340 719 q 379 786 379 758 q 360 834 379 814 q 313 854 340 854 q 265 834 285 854 q 246 786 246 814 q 265 739 246 758 q 313 719 285 719 z "},"{":{"ha":1124,"x_min":11,"x_max":1081,"o":"m 488 728 q 169 989 340 919 q 17 1021 81 1025 l 11 1100 q 192 1064 85 1106 q 561 761 396 985 q 746 993 581 993 q 772 992 760 993 q 985 751 921 975 q 1028 401 1026 606 q 1035 285 1028 363 q 1081 -11 1047 138 q 281 246 557 71 q 117 450 158 322 q 101 535 101 494 q 140 649 101 599 q 371 739 210 739 q 488 728 425 739 m 561 761 q 560 713 558 731 q 488 728 525 721 q 619 517 558 635 q 860 119 790 188 l 915 178 q 690 554 853 240 q 561 761 633 665 z "},"|":{"ha":1076,"x_min":1,"x_max":1042,"o":"m 961 68 q 1025 117 990 96 l 1035 89 q 1042 51 1042 68 q 1030 15 1042 26 q 997 3 1018 3 q 953 13 976 3 l 926 21 q 961 68 942 49 m 822 417 l 218 1019 q 285 1035 238 1026 l 907 413 l 822 417 m 774 375 l 756 290 l 668 271 l 49 890 l 157 990 l 774 375 m 688 210 l 810 236 l 833 351 l 949 347 l 1004 179 q 917 114 956 153 q 865 40 886 83 l 681 99 l 688 210 m 625 224 l 619 147 l 6 761 q 17 831 1 786 l 625 224 z "},"}":{"ha":1210,"x_min":0,"x_max":1153,"o":"m 129 407 q 36 276 72 353 q 0 135 0 200 q 35 36 0 72 q 138 0 69 0 q 278 33 203 0 q 407 118 353 65 q 508 333 508 215 q 492 410 508 375 q 878 736 713 583 q 1153 1076 1153 990 q 1119 1111 1153 1111 q 439 472 982 1111 q 339 500 397 500 q 129 407 226 500 z "},"~":{"ha":1738,"x_min":33,"x_max":1658,"o":"m 1524 632 q 1625 329 1625 458 q 1496 122 1625 181 q 1360 90 1425 90 q 1128 221 1222 90 q 1085 297 1099 261 l 1118 310 q 1001 282 1061 308 q 1065 124 1018 235 l 958 78 q 889 246 907 197 q 838 243 863 243 q 731 257 775 243 q 654 75 710 158 l 557 140 q 618 296 604 211 q 518 314 564 311 l 549 307 q 507 215 540 263 q 325 96 443 124 q 267 89 296 89 q 130 131 194 89 q 33 240 65 174 l 139 292 q 267 207 182 207 q 299 210 286 207 q 426 310 392 231 q 311 300 331 300 q 224 314 274 300 q 157 358 157 331 q 225 426 157 379 q 331 517 310 483 q 411 644 357 560 q 553 786 471 733 q 799 854 660 854 q 1017 774 913 854 q 1174 614 1075 729 q 1306 490 1260 513 q 1440 381 1440 422 q 1410 333 1440 358 q 1211 308 1368 300 q 1360 208 1271 208 q 1447 229 1401 208 q 1508 329 1508 257 q 1417 583 1508 428 q 1406 582 1400 582 q 1287 631 1336 582 q 1238 749 1238 679 q 1287 867 1238 818 q 1406 915 1336 915 q 1524 867 1475 915 q 1572 749 1572 818 q 1524 632 1572 681 m 1406 699 q 1440 713 1426 699 q 1454 749 1454 728 q 1440 784 1454 769 q 1406 799 1426 799 q 1370 784 1385 799 q 1356 749 1356 769 q 1370 713 1356 728 q 1406 699 1385 699 m 588 436 q 665 467 633 436 q 696 544 696 499 q 664 621 696 589 q 588 653 632 653 q 510 622 542 653 q 479 544 479 590 q 510 467 479 499 q 588 436 542 436 m 982 432 q 1059 463 1028 432 q 1090 540 1090 494 q 1058 617 1090 585 q 982 649 1026 649 q 906 617 938 649 q 874 540 874 585 q 905 463 874 494 q 982 432 936 432 m 590 496 q 550 536 550 496 q 590 578 550 578 q 631 536 631 578 q 590 496 631 496 m 981 496 q 940 536 940 496 q 981 578 940 578 q 1021 536 1021 578 q 981 496 1021 496 m 1088 901 l 1169 986 l 1250 907 l 1168 824 l 1088 901 m 1285 1032 l 1396 1067 l 1425 971 l 1313 936 l 1285 1032 m 1569 1046 l 1658 969 l 1588 888 l 1499 964 l 1569 1046 z "},"":{"ha":1389,"x_min":0,"x_max":0,"o":""}}}
